<svg width="121" height="145" viewBox="0 0 121 145" fill="none" xmlns="http://www.w3.org/2000/svg">
<path d="M54.8662 2.31764L2.50045 54.6823C1.00566 56.177 0.185181 58.1693 0.185181 60.2936C0.185181 62.4202 1.00684 64.4113 2.50045 65.9061L7.25594 70.6604C8.74836 72.154 10.7418 72.9769 12.8673 72.9769C14.9916 72.9769 17.0522 72.154 18.5446 70.6604L49.1606 40.1116L49.1606 137.167C49.1606 141.542 52.5863 145 56.9634 145H63.6864C68.0635 145 71.8346 141.542 71.8346 137.167V39.7651L102.622 70.6592C104.116 72.1528 106.056 72.9757 108.181 72.9757C110.304 72.9757 112.272 72.1528 113.765 70.6592L118.505 65.9049C120 64.4101 120.815 62.4191 120.815 60.2924C120.815 58.1681 119.99 56.1759 118.495 54.6811L66.1302 2.31647C64.6307 0.818146 62.629 -0.00585938 60.5012 3.05176e-05C58.3663 -0.00468445 56.3634 0.818146 54.8662 2.31764Z" fill="black"/>
</svg>
