<svg width="144" height="84" viewBox="0 0 144 84" fill="none" xmlns="http://www.w3.org/2000/svg">
<path d="M16.7632 59.9775C16.8381 55.5228 17.3434 52.0039 18.2793 49.4209C19.2152 46.8379 21.1243 43.9741 24.0068 40.8296L31.3628 33.249C34.5073 29.6927 36.0796 25.8743 36.0796 21.7939C36.0796 17.8633 35.0501 14.7936 32.9912 12.585C30.9323 10.3389 27.9375 9.21582 24.0068 9.21582C20.1885 9.21582 17.1188 10.2266 14.7979 12.248C12.4769 14.2695 11.3164 16.9836 11.3164 20.3901H0.928223C1.00309 14.3257 3.1556 9.44043 7.38574 5.73438C11.6533 1.99089 17.1937 0.119141 24.0068 0.119141C31.082 0.119141 36.585 2.02832 40.5156 5.84668C44.4837 9.6276 46.4678 14.8311 46.4678 21.457C46.4678 28.0081 43.4355 34.4657 37.3711 40.8296L31.2505 46.894C28.5177 49.9263 27.1514 54.2874 27.1514 59.9775H16.7632ZM16.314 77.7778C16.314 76.0933 16.8193 74.6895 17.8301 73.5664C18.8783 72.4059 20.4131 71.8257 22.4346 71.8257C24.4561 71.8257 25.9909 72.4059 27.0391 73.5664C28.0872 74.6895 28.6113 76.0933 28.6113 77.7778C28.6113 79.4624 28.0872 80.8662 27.0391 81.9893C25.9909 83.0749 24.4561 83.6177 22.4346 83.6177C20.4131 83.6177 18.8783 83.0749 17.8301 81.9893C16.8193 80.8662 16.314 79.4624 16.314 77.7778ZM65.3687 59.9775C65.4435 55.5228 65.9489 52.0039 66.8848 49.4209C67.8206 46.8379 69.7298 43.9741 72.6123 40.8296L79.9683 33.249C83.1128 29.6927 84.6851 25.8743 84.6851 21.7939C84.6851 17.8633 83.6556 14.7936 81.5967 12.585C79.5378 10.3389 76.543 9.21582 72.6123 9.21582C68.7939 9.21582 65.7243 10.2266 63.4033 12.248C61.0824 14.2695 59.9219 16.9836 59.9219 20.3901H49.5337C49.6086 14.3257 51.7611 9.44043 55.9912 5.73438C60.2588 1.99089 65.7992 0.119141 72.6123 0.119141C79.6875 0.119141 85.1904 2.02832 89.1211 5.84668C93.0892 9.6276 95.0732 14.8311 95.0732 21.457C95.0732 28.0081 92.041 34.4657 85.9766 40.8296L79.856 46.894C77.1232 49.9263 75.7568 54.2874 75.7568 59.9775H65.3687ZM64.9194 77.7778C64.9194 76.0933 65.4248 74.6895 66.4355 73.5664C67.4837 72.4059 69.0186 71.8257 71.04 71.8257C73.0615 71.8257 74.5964 72.4059 75.6445 73.5664C76.6927 74.6895 77.2168 76.0933 77.2168 77.7778C77.2168 79.4624 76.6927 80.8662 75.6445 81.9893C74.5964 83.0749 73.0615 83.6177 71.04 83.6177C69.0186 83.6177 67.4837 83.0749 66.4355 81.9893C65.4248 80.8662 64.9194 79.4624 64.9194 77.7778ZM113.974 59.9775C114.049 55.5228 114.554 52.0039 115.49 49.4209C116.426 46.8379 118.335 43.9741 121.218 40.8296L128.574 33.249C131.718 29.6927 133.291 25.8743 133.291 21.7939C133.291 17.8633 132.261 14.7936 130.202 12.585C128.143 10.3389 125.148 9.21582 121.218 9.21582C117.399 9.21582 114.33 10.2266 112.009 12.248C109.688 14.2695 108.527 16.9836 108.527 20.3901H98.1392C98.214 14.3257 100.367 9.44043 104.597 5.73438C108.864 1.99089 114.405 0.119141 121.218 0.119141C128.293 0.119141 133.796 2.02832 137.727 5.84668C141.695 9.6276 143.679 14.8311 143.679 21.457C143.679 28.0081 140.646 34.4657 134.582 40.8296L128.461 46.894C125.729 49.9263 124.362 54.2874 124.362 59.9775H113.974ZM113.525 77.7778C113.525 76.0933 114.03 74.6895 115.041 73.5664C116.089 72.4059 117.624 71.8257 119.646 71.8257C121.667 71.8257 123.202 72.4059 124.25 73.5664C125.298 74.6895 125.822 76.0933 125.822 77.7778C125.822 79.4624 125.298 80.8662 124.25 81.9893C123.202 83.0749 121.667 83.6177 119.646 83.6177C117.624 83.6177 116.089 83.0749 115.041 81.9893C114.03 80.8662 113.525 79.4624 113.525 77.7778Z" fill="black"/>
</svg>
